<mxfile host="app.diagrams.net" agent="Mozilla/5.0 (Windows NT 10.0; Win64; x64) AppleWebKit/537.36 (KHTML, like Gecko) Chrome/127.0.0.0 Safari/537.36" version="24.7.7">
  <diagram name="Página-1" id="RvR5tE_xyURKE1Yi1e9z">
    <mxGraphModel dx="2269" dy="1200" grid="1" gridSize="10" guides="1" tooltips="1" connect="1" arrows="1" fold="1" page="1" pageScale="1" pageWidth="827" pageHeight="1169" math="0" shadow="0">
      <root>
        <mxCell id="0" />
        <mxCell id="1" parent="0" />
        <mxCell id="zZACtnFvRwucOKBFF_2M-101" value="" style="rounded=0;whiteSpace=wrap;html=1;fillColor=#f5f5f5;fontColor=#333333;strokeColor=#666666;" vertex="1" parent="1">
          <mxGeometry x="990" y="640" width="470" height="450" as="geometry" />
        </mxCell>
        <mxCell id="zZACtnFvRwucOKBFF_2M-2" value="" style="rounded=0;whiteSpace=wrap;html=1;fillColor=#f5f5f5;fontColor=#333333;strokeColor=#666666;" vertex="1" parent="1">
          <mxGeometry x="220" y="20" width="270" height="420" as="geometry" />
        </mxCell>
        <mxCell id="zZACtnFvRwucOKBFF_2M-13" style="rounded=0;orthogonalLoop=1;jettySize=auto;html=1;exitX=0.5;exitY=0.5;exitDx=0;exitDy=0;exitPerimeter=0;entryX=0;entryY=1;entryDx=0;entryDy=0;endArrow=none;endFill=0;" edge="1" parent="1" source="zZACtnFvRwucOKBFF_2M-1" target="zZACtnFvRwucOKBFF_2M-22">
          <mxGeometry relative="1" as="geometry">
            <mxPoint x="280" y="90" as="targetPoint" />
          </mxGeometry>
        </mxCell>
        <mxCell id="zZACtnFvRwucOKBFF_2M-14" style="rounded=0;orthogonalLoop=1;jettySize=auto;html=1;exitX=0.5;exitY=0.5;exitDx=0;exitDy=0;exitPerimeter=0;endArrow=none;endFill=0;entryX=0;entryY=0.5;entryDx=0;entryDy=0;" edge="1" parent="1" source="zZACtnFvRwucOKBFF_2M-1" target="zZACtnFvRwucOKBFF_2M-23">
          <mxGeometry relative="1" as="geometry">
            <mxPoint x="384" y="128.90334572490713" as="targetPoint" />
          </mxGeometry>
        </mxCell>
        <mxCell id="zZACtnFvRwucOKBFF_2M-15" style="rounded=0;orthogonalLoop=1;jettySize=auto;html=1;exitX=0.5;exitY=0.5;exitDx=0;exitDy=0;exitPerimeter=0;entryX=0;entryY=0.5;entryDx=0;entryDy=0;endArrow=none;endFill=0;" edge="1" parent="1" source="zZACtnFvRwucOKBFF_2M-1" target="zZACtnFvRwucOKBFF_2M-25">
          <mxGeometry relative="1" as="geometry">
            <mxPoint x="319.9999999999999" y="180" as="targetPoint" />
          </mxGeometry>
        </mxCell>
        <mxCell id="zZACtnFvRwucOKBFF_2M-17" style="rounded=0;orthogonalLoop=1;jettySize=auto;html=1;exitX=0.5;exitY=0.5;exitDx=0;exitDy=0;exitPerimeter=0;entryX=0;entryY=0.5;entryDx=0;entryDy=0;endArrow=none;endFill=0;" edge="1" parent="1" source="zZACtnFvRwucOKBFF_2M-1" target="zZACtnFvRwucOKBFF_2M-26">
          <mxGeometry relative="1" as="geometry">
            <mxPoint x="289.9999999999999" y="235" as="targetPoint" />
          </mxGeometry>
        </mxCell>
        <mxCell id="zZACtnFvRwucOKBFF_2M-1" value="Cliente" style="shape=umlActor;verticalLabelPosition=bottom;verticalAlign=top;html=1;outlineConnect=0;" vertex="1" parent="1">
          <mxGeometry x="130" y="130" width="30" height="60" as="geometry" />
        </mxCell>
        <mxCell id="zZACtnFvRwucOKBFF_2M-20" style="rounded=0;orthogonalLoop=1;jettySize=auto;html=1;exitX=0.5;exitY=0.5;exitDx=0;exitDy=0;exitPerimeter=0;entryX=0;entryY=0.5;entryDx=0;entryDy=0;endArrow=none;endFill=0;" edge="1" parent="1" source="zZACtnFvRwucOKBFF_2M-7" target="zZACtnFvRwucOKBFF_2M-27">
          <mxGeometry relative="1" as="geometry">
            <mxPoint x="269.9999999999999" y="320" as="targetPoint" />
          </mxGeometry>
        </mxCell>
        <mxCell id="zZACtnFvRwucOKBFF_2M-21" style="rounded=0;orthogonalLoop=1;jettySize=auto;html=1;exitX=0.5;exitY=0.5;exitDx=0;exitDy=0;exitPerimeter=0;endArrow=none;endFill=0;entryX=0;entryY=0.5;entryDx=0;entryDy=0;" edge="1" parent="1" source="zZACtnFvRwucOKBFF_2M-7" target="zZACtnFvRwucOKBFF_2M-28">
          <mxGeometry relative="1" as="geometry">
            <mxPoint x="269.9999999999999" y="376.48648648648646" as="targetPoint" />
          </mxGeometry>
        </mxCell>
        <mxCell id="zZACtnFvRwucOKBFF_2M-7" value="Gerente" style="shape=umlActor;verticalLabelPosition=bottom;verticalAlign=top;html=1;outlineConnect=0;" vertex="1" parent="1">
          <mxGeometry x="120" y="310" width="30" height="60" as="geometry" />
        </mxCell>
        <mxCell id="zZACtnFvRwucOKBFF_2M-22" value="&lt;div&gt;Transferência&amp;nbsp;&lt;/div&gt;" style="ellipse;whiteSpace=wrap;html=1;fillColor=#fff2cc;strokeColor=#d6b656;" vertex="1" parent="1">
          <mxGeometry x="270" y="60" width="100" height="40" as="geometry" />
        </mxCell>
        <mxCell id="zZACtnFvRwucOKBFF_2M-23" value="Saque" style="ellipse;whiteSpace=wrap;html=1;fillColor=#fff2cc;strokeColor=#d6b656;" vertex="1" parent="1">
          <mxGeometry x="380" y="100" width="90" height="40" as="geometry" />
        </mxCell>
        <mxCell id="zZACtnFvRwucOKBFF_2M-25" value="Consulta de saldo" style="ellipse;whiteSpace=wrap;html=1;fillColor=#fff2cc;strokeColor=#d6b656;" vertex="1" parent="1">
          <mxGeometry x="330" y="160" width="100" height="40" as="geometry" />
        </mxCell>
        <mxCell id="zZACtnFvRwucOKBFF_2M-26" value="Atualização dos dados" style="ellipse;whiteSpace=wrap;html=1;fillColor=#fff2cc;strokeColor=#d6b656;" vertex="1" parent="1">
          <mxGeometry x="290" y="210" width="110" height="50" as="geometry" />
        </mxCell>
        <mxCell id="zZACtnFvRwucOKBFF_2M-27" value="Adicionar conta de cliente" style="ellipse;whiteSpace=wrap;html=1;fillColor=#fff2cc;strokeColor=#d6b656;" vertex="1" parent="1">
          <mxGeometry x="270" y="300" width="110" height="50" as="geometry" />
        </mxCell>
        <mxCell id="zZACtnFvRwucOKBFF_2M-28" value="Remover conta de cliente" style="ellipse;whiteSpace=wrap;html=1;fillColor=#fff2cc;strokeColor=#d6b656;" vertex="1" parent="1">
          <mxGeometry x="270" y="360" width="130" height="50" as="geometry" />
        </mxCell>
        <mxCell id="zZACtnFvRwucOKBFF_2M-30" value="" style="rounded=0;whiteSpace=wrap;html=1;fillColor=#F5F5F5;fontColor=#333333;strokeColor=#666666;" vertex="1" parent="1">
          <mxGeometry x="240" y="640" width="320" height="330" as="geometry" />
        </mxCell>
        <mxCell id="zZACtnFvRwucOKBFF_2M-49" style="rounded=0;orthogonalLoop=1;jettySize=auto;html=1;exitX=0.5;exitY=0.5;exitDx=0;exitDy=0;exitPerimeter=0;entryX=0;entryY=0.5;entryDx=0;entryDy=0;endArrow=none;endFill=0;" edge="1" parent="1" source="zZACtnFvRwucOKBFF_2M-31" target="zZACtnFvRwucOKBFF_2M-34">
          <mxGeometry relative="1" as="geometry" />
        </mxCell>
        <mxCell id="zZACtnFvRwucOKBFF_2M-31" value="Usuário" style="shape=umlActor;verticalLabelPosition=bottom;verticalAlign=top;html=1;outlineConnect=0;" vertex="1" parent="1">
          <mxGeometry x="150" y="850" width="30" height="60" as="geometry" />
        </mxCell>
        <mxCell id="zZACtnFvRwucOKBFF_2M-48" style="rounded=0;orthogonalLoop=1;jettySize=auto;html=1;exitX=0.5;exitY=0.5;exitDx=0;exitDy=0;exitPerimeter=0;entryX=0;entryY=0.5;entryDx=0;entryDy=0;endArrow=none;endFill=0;" edge="1" parent="1" source="zZACtnFvRwucOKBFF_2M-32" target="zZACtnFvRwucOKBFF_2M-35">
          <mxGeometry relative="1" as="geometry" />
        </mxCell>
        <mxCell id="zZACtnFvRwucOKBFF_2M-50" style="rounded=0;orthogonalLoop=1;jettySize=auto;html=1;exitX=0.5;exitY=0.5;exitDx=0;exitDy=0;exitPerimeter=0;entryX=0;entryY=0.5;entryDx=0;entryDy=0;endArrow=none;endFill=0;" edge="1" parent="1" source="zZACtnFvRwucOKBFF_2M-32" target="zZACtnFvRwucOKBFF_2M-34">
          <mxGeometry relative="1" as="geometry">
            <mxPoint x="259.9999999999999" y="960" as="targetPoint" />
          </mxGeometry>
        </mxCell>
        <mxCell id="zZACtnFvRwucOKBFF_2M-54" style="rounded=0;orthogonalLoop=1;jettySize=auto;html=1;exitX=0.5;exitY=0.5;exitDx=0;exitDy=0;exitPerimeter=0;entryX=0;entryY=0.5;entryDx=0;entryDy=0;endArrow=none;endFill=0;" edge="1" parent="1" source="zZACtnFvRwucOKBFF_2M-32" target="zZACtnFvRwucOKBFF_2M-39">
          <mxGeometry relative="1" as="geometry" />
        </mxCell>
        <mxCell id="zZACtnFvRwucOKBFF_2M-55" style="rounded=0;orthogonalLoop=1;jettySize=auto;html=1;exitX=0.5;exitY=0.5;exitDx=0;exitDy=0;exitPerimeter=0;entryX=0;entryY=0.5;entryDx=0;entryDy=0;endArrow=none;endFill=0;" edge="1" parent="1" source="zZACtnFvRwucOKBFF_2M-32" target="zZACtnFvRwucOKBFF_2M-41">
          <mxGeometry relative="1" as="geometry" />
        </mxCell>
        <mxCell id="zZACtnFvRwucOKBFF_2M-32" value="Gerente do projeto" style="shape=umlActor;verticalLabelPosition=bottom;verticalAlign=top;html=1;outlineConnect=0;" vertex="1" parent="1">
          <mxGeometry x="110" y="750" width="30" height="60" as="geometry" />
        </mxCell>
        <mxCell id="zZACtnFvRwucOKBFF_2M-40" value="&amp;lt;&amp;lt;include&amp;gt;&amp;gt;" style="rounded=0;orthogonalLoop=1;jettySize=auto;html=1;endArrow=none;endFill=0;labelPosition=center;verticalLabelPosition=top;align=center;verticalAlign=bottom;dashed=1;dashPattern=8 8;fillColor=#f5f5f5;strokeColor=#000000;startArrow=classic;startFill=1;" edge="1" parent="1" source="zZACtnFvRwucOKBFF_2M-33" target="zZACtnFvRwucOKBFF_2M-39">
          <mxGeometry relative="1" as="geometry" />
        </mxCell>
        <mxCell id="zZACtnFvRwucOKBFF_2M-42" value="&amp;lt;&amp;lt;include&amp;gt;&amp;gt;" style="rounded=0;orthogonalLoop=1;jettySize=auto;html=1;endArrow=none;endFill=0;labelPosition=center;verticalLabelPosition=top;align=center;verticalAlign=bottom;dashed=1;dashPattern=8 8;startArrow=classic;startFill=1;" edge="1" parent="1" source="zZACtnFvRwucOKBFF_2M-33" target="zZACtnFvRwucOKBFF_2M-41">
          <mxGeometry x="0.6615" y="2" relative="1" as="geometry">
            <mxPoint as="offset" />
          </mxGeometry>
        </mxCell>
        <mxCell id="zZACtnFvRwucOKBFF_2M-33" value="Criar tarefa" style="ellipse;whiteSpace=wrap;html=1;fillColor=#fff2cc;strokeColor=#d6b656;" vertex="1" parent="1">
          <mxGeometry x="450" y="670" width="85" height="50" as="geometry" />
        </mxCell>
        <mxCell id="zZACtnFvRwucOKBFF_2M-34" value="Concluir tarefa" style="ellipse;whiteSpace=wrap;html=1;fillColor=#fff2cc;strokeColor=#d6b656;" vertex="1" parent="1">
          <mxGeometry x="294" y="880" width="102" height="50" as="geometry" />
        </mxCell>
        <mxCell id="zZACtnFvRwucOKBFF_2M-35" value="Atribuição de tarefa" style="ellipse;whiteSpace=wrap;html=1;fillColor=#fff2cc;strokeColor=#d6b656;" vertex="1" parent="1">
          <mxGeometry x="285" y="800" width="95" height="50" as="geometry" />
        </mxCell>
        <mxCell id="zZACtnFvRwucOKBFF_2M-39" value="Tarefa simples" style="ellipse;whiteSpace=wrap;html=1;fillColor=#fff2cc;strokeColor=#d6b656;" vertex="1" parent="1">
          <mxGeometry x="285" y="660" width="85" height="50" as="geometry" />
        </mxCell>
        <mxCell id="zZACtnFvRwucOKBFF_2M-41" value="Tarefa prioritária&amp;nbsp;" style="ellipse;whiteSpace=wrap;html=1;fillColor=#fff2cc;strokeColor=#d6b656;" vertex="1" parent="1">
          <mxGeometry x="302.5" y="730" width="85" height="50" as="geometry" />
        </mxCell>
        <mxCell id="zZACtnFvRwucOKBFF_2M-53" style="edgeStyle=orthogonalEdgeStyle;rounded=0;orthogonalLoop=1;jettySize=auto;html=1;exitX=0.5;exitY=1;exitDx=0;exitDy=0;" edge="1" parent="1" source="zZACtnFvRwucOKBFF_2M-30" target="zZACtnFvRwucOKBFF_2M-30">
          <mxGeometry relative="1" as="geometry" />
        </mxCell>
        <mxCell id="zZACtnFvRwucOKBFF_2M-56" value="" style="rounded=0;whiteSpace=wrap;html=1;fillColor=#f5f5f5;fontColor=#333333;strokeColor=#666666;" vertex="1" parent="1">
          <mxGeometry x="871" y="50" width="589" height="370" as="geometry" />
        </mxCell>
        <mxCell id="zZACtnFvRwucOKBFF_2M-80" style="rounded=0;orthogonalLoop=1;jettySize=auto;html=1;endArrow=none;endFill=0;exitX=0.5;exitY=0.5;exitDx=0;exitDy=0;exitPerimeter=0;" edge="1" parent="1" source="zZACtnFvRwucOKBFF_2M-57" target="zZACtnFvRwucOKBFF_2M-59">
          <mxGeometry relative="1" as="geometry" />
        </mxCell>
        <mxCell id="zZACtnFvRwucOKBFF_2M-94" style="rounded=0;orthogonalLoop=1;jettySize=auto;html=1;exitX=0.5;exitY=0.5;exitDx=0;exitDy=0;exitPerimeter=0;entryX=0;entryY=0.5;entryDx=0;entryDy=0;endArrow=none;endFill=0;" edge="1" parent="1" source="zZACtnFvRwucOKBFF_2M-57" target="zZACtnFvRwucOKBFF_2M-81">
          <mxGeometry relative="1" as="geometry" />
        </mxCell>
        <mxCell id="zZACtnFvRwucOKBFF_2M-96" style="rounded=0;orthogonalLoop=1;jettySize=auto;html=1;exitX=0.5;exitY=0.5;exitDx=0;exitDy=0;exitPerimeter=0;entryX=0;entryY=0.5;entryDx=0;entryDy=0;endArrow=none;endFill=0;" edge="1" parent="1" source="zZACtnFvRwucOKBFF_2M-57" target="zZACtnFvRwucOKBFF_2M-95">
          <mxGeometry relative="1" as="geometry" />
        </mxCell>
        <mxCell id="zZACtnFvRwucOKBFF_2M-57" value="Cliente" style="shape=umlActor;verticalLabelPosition=bottom;verticalAlign=top;html=1;outlineConnect=0;" vertex="1" parent="1">
          <mxGeometry x="797" y="120" width="33" height="60" as="geometry" />
        </mxCell>
        <mxCell id="zZACtnFvRwucOKBFF_2M-59" value="Selecionar origem e destino da passagem" style="ellipse;whiteSpace=wrap;html=1;fillColor=#fff2cc;strokeColor=#d6b656;" vertex="1" parent="1">
          <mxGeometry x="920" y="75" width="130" height="70" as="geometry" />
        </mxCell>
        <mxCell id="zZACtnFvRwucOKBFF_2M-97" value="&amp;lt;&amp;lt;Extend&amp;gt;&amp;gt;" style="rounded=0;orthogonalLoop=1;jettySize=auto;html=1;exitX=1;exitY=0.5;exitDx=0;exitDy=0;dashed=1;dashPattern=8 8;" edge="1" parent="1" source="zZACtnFvRwucOKBFF_2M-81" target="zZACtnFvRwucOKBFF_2M-82">
          <mxGeometry relative="1" as="geometry" />
        </mxCell>
        <mxCell id="zZACtnFvRwucOKBFF_2M-81" value="Visualizar Horários disponíveis" style="ellipse;whiteSpace=wrap;html=1;fillColor=#fff2cc;strokeColor=#d6b656;" vertex="1" parent="1">
          <mxGeometry x="980" y="320" width="100" height="55" as="geometry" />
        </mxCell>
        <mxCell id="zZACtnFvRwucOKBFF_2M-82" value="Comprar" style="ellipse;whiteSpace=wrap;html=1;fillColor=#fff2cc;strokeColor=#d6b656;" vertex="1" parent="1">
          <mxGeometry x="1151" y="250" width="90" height="40" as="geometry" />
        </mxCell>
        <mxCell id="zZACtnFvRwucOKBFF_2M-92" value="&amp;lt;&amp;lt;Extend&amp;gt;&amp;gt;" style="rounded=0;orthogonalLoop=1;jettySize=auto;html=1;exitX=1;exitY=1;exitDx=0;exitDy=0;entryX=0;entryY=0.5;entryDx=0;entryDy=0;dashed=1;dashPattern=8 8;" edge="1" parent="1" source="zZACtnFvRwucOKBFF_2M-82" target="zZACtnFvRwucOKBFF_2M-91">
          <mxGeometry relative="1" as="geometry">
            <mxPoint x="1345" y="320" as="sourcePoint" />
          </mxGeometry>
        </mxCell>
        <mxCell id="zZACtnFvRwucOKBFF_2M-90" value="&amp;lt;&amp;lt;Include&amp;gt;&amp;gt;" style="rounded=0;orthogonalLoop=1;jettySize=auto;html=1;exitX=1;exitY=0.5;exitDx=0;exitDy=0;dashed=1;dashPattern=8 8;" edge="1" parent="1" source="zZACtnFvRwucOKBFF_2M-82" target="zZACtnFvRwucOKBFF_2M-89">
          <mxGeometry relative="1" as="geometry">
            <mxPoint x="1538" y="300" as="sourcePoint" />
          </mxGeometry>
        </mxCell>
        <mxCell id="zZACtnFvRwucOKBFF_2M-89" value="Pagamento" style="ellipse;whiteSpace=wrap;html=1;fillColor=#fff2cc;strokeColor=#d6b656;" vertex="1" parent="1">
          <mxGeometry x="1260" y="170" width="120" height="40" as="geometry" />
        </mxCell>
        <mxCell id="zZACtnFvRwucOKBFF_2M-91" value="Cancelamento" style="ellipse;whiteSpace=wrap;html=1;fillColor=#fff2cc;strokeColor=#d6b656;" vertex="1" parent="1">
          <mxGeometry x="1320" y="305" width="96" height="40" as="geometry" />
        </mxCell>
        <mxCell id="zZACtnFvRwucOKBFF_2M-98" value="&amp;lt;&amp;lt;Extend&amp;gt;&amp;gt;" style="rounded=0;orthogonalLoop=1;jettySize=auto;html=1;exitX=1;exitY=0.5;exitDx=0;exitDy=0;entryX=0;entryY=0.5;entryDx=0;entryDy=0;dashed=1;dashPattern=8 8;" edge="1" parent="1" source="zZACtnFvRwucOKBFF_2M-95" target="zZACtnFvRwucOKBFF_2M-82">
          <mxGeometry relative="1" as="geometry">
            <mxPoint x="1150" y="225.33333333333337" as="targetPoint" />
          </mxGeometry>
        </mxCell>
        <mxCell id="zZACtnFvRwucOKBFF_2M-95" value="Ver classes disponíveis" style="ellipse;whiteSpace=wrap;html=1;fillColor=#fff2cc;strokeColor=#d6b656;" vertex="1" parent="1">
          <mxGeometry x="960" y="190" width="100" height="50" as="geometry" />
        </mxCell>
        <mxCell id="zZACtnFvRwucOKBFF_2M-114" style="rounded=0;orthogonalLoop=1;jettySize=auto;html=1;exitX=0.5;exitY=0.5;exitDx=0;exitDy=0;exitPerimeter=0;endArrow=none;endFill=0;" edge="1" parent="1" source="zZACtnFvRwucOKBFF_2M-100" target="zZACtnFvRwucOKBFF_2M-103">
          <mxGeometry relative="1" as="geometry" />
        </mxCell>
        <mxCell id="zZACtnFvRwucOKBFF_2M-115" style="rounded=0;orthogonalLoop=1;jettySize=auto;html=1;exitX=0.5;exitY=0.5;exitDx=0;exitDy=0;exitPerimeter=0;entryX=0;entryY=0.5;entryDx=0;entryDy=0;endArrow=none;endFill=0;" edge="1" parent="1" source="zZACtnFvRwucOKBFF_2M-100" target="zZACtnFvRwucOKBFF_2M-102">
          <mxGeometry relative="1" as="geometry" />
        </mxCell>
        <mxCell id="zZACtnFvRwucOKBFF_2M-100" value="Secretária" style="shape=umlActor;verticalLabelPosition=bottom;verticalAlign=top;html=1;outlineConnect=0;" vertex="1" parent="1">
          <mxGeometry x="900" y="690" width="30" height="60" as="geometry" />
        </mxCell>
        <mxCell id="zZACtnFvRwucOKBFF_2M-102" value="Gerar currículo" style="ellipse;whiteSpace=wrap;html=1;fillColor=#fff2cc;strokeColor=#d6b656;" vertex="1" parent="1">
          <mxGeometry x="1050" y="655" width="120" height="80" as="geometry" />
        </mxCell>
        <mxCell id="zZACtnFvRwucOKBFF_2M-103" value="Registro de informações" style="ellipse;whiteSpace=wrap;html=1;fillColor=#fff2cc;strokeColor=#d6b656;" vertex="1" parent="1">
          <mxGeometry x="1040" y="750" width="120" height="80" as="geometry" />
        </mxCell>
        <mxCell id="zZACtnFvRwucOKBFF_2M-117" style="rounded=0;orthogonalLoop=1;jettySize=auto;html=1;exitX=0.5;exitY=0.5;exitDx=0;exitDy=0;exitPerimeter=0;endArrow=none;endFill=0;" edge="1" parent="1" source="zZACtnFvRwucOKBFF_2M-104" target="zZACtnFvRwucOKBFF_2M-105">
          <mxGeometry relative="1" as="geometry" />
        </mxCell>
        <mxCell id="zZACtnFvRwucOKBFF_2M-118" style="rounded=0;orthogonalLoop=1;jettySize=auto;html=1;exitX=0.5;exitY=0.5;exitDx=0;exitDy=0;exitPerimeter=0;entryX=0;entryY=0.5;entryDx=0;entryDy=0;endArrow=none;endFill=0;" edge="1" parent="1" source="zZACtnFvRwucOKBFF_2M-104" target="zZACtnFvRwucOKBFF_2M-106">
          <mxGeometry relative="1" as="geometry" />
        </mxCell>
        <mxCell id="zZACtnFvRwucOKBFF_2M-104" value="Aluno" style="shape=umlActor;verticalLabelPosition=bottom;verticalAlign=top;html=1;outlineConnect=0;" vertex="1" parent="1">
          <mxGeometry x="900" y="920" width="30" height="60" as="geometry" />
        </mxCell>
        <mxCell id="zZACtnFvRwucOKBFF_2M-105" value="Matricular em disciplina" style="ellipse;whiteSpace=wrap;html=1;fillColor=#fff2cc;strokeColor=#d6b656;" vertex="1" parent="1">
          <mxGeometry x="1070" y="890" width="120" height="80" as="geometry" />
        </mxCell>
        <mxCell id="zZACtnFvRwucOKBFF_2M-106" value="Cancelamento da matricula" style="ellipse;whiteSpace=wrap;html=1;fillColor=#fff2cc;strokeColor=#d6b656;" vertex="1" parent="1">
          <mxGeometry x="1070" y="985" width="120" height="80" as="geometry" />
        </mxCell>
        <mxCell id="zZACtnFvRwucOKBFF_2M-107" value="Sistema" style="shape=umlActor;verticalLabelPosition=bottom;verticalAlign=top;html=1;outlineConnect=0;" vertex="1" parent="1">
          <mxGeometry x="1510" y="680" width="30" height="60" as="geometry" />
        </mxCell>
        <mxCell id="zZACtnFvRwucOKBFF_2M-108" value="Cobrança" style="ellipse;whiteSpace=wrap;html=1;fillColor=#fff2cc;strokeColor=#d6b656;" vertex="1" parent="1">
          <mxGeometry x="1312" y="735" width="88" height="40" as="geometry" />
        </mxCell>
        <mxCell id="zZACtnFvRwucOKBFF_2M-110" value="Professores" style="shape=umlActor;verticalLabelPosition=bottom;verticalAlign=top;html=1;outlineConnect=0;" vertex="1" parent="1">
          <mxGeometry x="1510" y="950" width="30" height="60" as="geometry" />
        </mxCell>
        <mxCell id="zZACtnFvRwucOKBFF_2M-111" value="Visualização da disciplinas dos alunos" style="ellipse;whiteSpace=wrap;html=1;fillColor=#fff2cc;strokeColor=#d6b656;" vertex="1" parent="1">
          <mxGeometry x="1291" y="940" width="130" height="70" as="geometry" />
        </mxCell>
        <mxCell id="zZACtnFvRwucOKBFF_2M-116" style="rounded=0;orthogonalLoop=1;jettySize=auto;html=1;exitX=1;exitY=0.5;exitDx=0;exitDy=0;entryX=0.5;entryY=0.5;entryDx=0;entryDy=0;entryPerimeter=0;endArrow=none;endFill=0;" edge="1" parent="1" source="zZACtnFvRwucOKBFF_2M-108" target="zZACtnFvRwucOKBFF_2M-107">
          <mxGeometry relative="1" as="geometry" />
        </mxCell>
        <mxCell id="zZACtnFvRwucOKBFF_2M-119" style="rounded=0;orthogonalLoop=1;jettySize=auto;html=1;exitX=1;exitY=0.5;exitDx=0;exitDy=0;entryX=0.5;entryY=0.5;entryDx=0;entryDy=0;entryPerimeter=0;endArrow=none;endFill=0;" edge="1" parent="1" source="zZACtnFvRwucOKBFF_2M-111" target="zZACtnFvRwucOKBFF_2M-110">
          <mxGeometry relative="1" as="geometry" />
        </mxCell>
      </root>
    </mxGraphModel>
  </diagram>
</mxfile>
